<svg viewBox="0 0 900 580" xmlns="http://www.w3.org/2000/svg" font-family="'Courier New', monospace">
  <defs>
    <marker id="arr" markerWidth="8" markerHeight="6" refX="8" refY="3" orient="auto">
      <polygon points="0 0, 8 3, 0 6" fill="#1a1a2e"/>
    </marker>
    <marker id="arr-w" markerWidth="8" markerHeight="6" refX="8" refY="3" orient="auto">
      <polygon points="0 0, 8 3, 0 6" fill="#e8a020"/>
    </marker>
    <filter id="shadow" x="-5%" y="-5%" width="115%" height="115%">
      <feDropShadow dx="2" dy="2" stdDeviation="3" flood-color="#00000030"/>
    </filter>
  </defs>

  <!-- Background -->
  <rect width="900" height="580" fill="#f8f9fa"/>

  <!-- Title -->
  <text x="450" y="32" text-anchor="middle" font-size="15" font-weight="bold" fill="#1a1a2e">WS2812B LED Controller — Schematic Overview</text>
  <text x="450" y="50" text-anchor="middle" font-size="10" fill="#666">Seeed XIAO ESP32C6 · 74AHCT125 Level Shifter · 16× WS2812B</text>
  <line x1="40" y1="58" x2="860" y2="58" stroke="#ccc" stroke-width="1"/>

  <!-- ── 5V POWER RAIL ───────────────────────────────────────────────────── -->
  <line x1="80" y1="88" x2="820" y2="88" stroke="#e53935" stroke-width="2.5"/>
  <text x="84" y="84" font-size="10" fill="#e53935" font-weight="bold">+5V</text>
  <text x="792" y="84" font-size="10" fill="#e53935" font-weight="bold">+5V</text>

  <!-- ── GND RAIL ────────────────────────────────────────────────────────── -->
  <line x1="80" y1="520" x2="820" y2="520" stroke="#333" stroke-width="2.5"/>
  <text x="84" y="516" font-size="10" fill="#333" font-weight="bold">GND</text>
  <text x="792" y="516" font-size="10" fill="#333" font-weight="bold">GND</text>

  <!-- ═══════════════════════════════════════════════════════════════════════ -->
  <!-- J1 — BARREL JACK                                                        -->
  <!-- ═══════════════════════════════════════════════════════════════════════ -->
  <rect x="40" y="130" width="90" height="110" rx="4" fill="#fff" stroke="#1a1a2e" stroke-width="1.5" filter="url(#shadow)"/>
  <rect x="40" y="130" width="90" height="22" rx="4" fill="#1a1a2e"/>
  <text x="85" y="145" text-anchor="middle" font-size="10" fill="#fff" font-weight="bold">J1</text>
  <text x="85" y="158" text-anchor="middle" font-size="8" fill="#fff">PJ-102AH</text>
  <text x="85" y="175" text-anchor="middle" font-size="9" fill="#666">DC Barrel</text>
  <text x="85" y="188" text-anchor="middle" font-size="9" fill="#666">Jack 2.1mm</text>
  <!-- Pins -->
  <text x="46" y="212" font-size="8" fill="#333">1 GND</text>
  <text x="46" y="227" font-size="8" fill="#e53935">2 +5V</text>
  <text x="46" y="242" font-size="8" fill="#666">3 SW→GND</text>
  <!-- Connections -->
  <line x1="130" y1="226" x2="160" y2="226" stroke="#e53935" stroke-width="1.5"/>
  <line x1="160" y1="226" x2="160" y2="88" stroke="#e53935" stroke-width="1.5"/>
  <circle cx="160" cy="88" r="3" fill="#e53935"/>
  <line x1="130" y1="211" x2="150" y2="211" stroke="#333" stroke-width="1.5"/>
  <line x1="150" y1="211" x2="150" y2="520" stroke="#333" stroke-width="1.5"/>
  <circle cx="150" cy="520" r="3" fill="#333"/>

  <!-- ═══════════════════════════════════════════════════════════════════════ -->
  <!-- C1 — 100µF BULK                                                         -->
  <!-- ═══════════════════════════════════════════════════════════════════════ -->
  <rect x="200" y="130" width="70" height="95" rx="4" fill="#fff" stroke="#1a1a2e" stroke-width="1.5" filter="url(#shadow)"/>
  <rect x="200" y="130" width="70" height="20" rx="4" fill="#1a1a2e"/>
  <text x="235" y="144" text-anchor="middle" font-size="10" fill="#fff" font-weight="bold">C1</text>
  <text x="235" y="162" text-anchor="middle" font-size="9" fill="#666">100µF</text>
  <text x="235" y="175" text-anchor="middle" font-size="9" fill="#666">16V</text>
  <text x="235" y="188" text-anchor="middle" font-size="8" fill="#999">UKL1C101</text>
  <text x="235" y="200" text-anchor="middle" font-size="8" fill="#999">KPDANA</text>
  <text x="235" y="218" text-anchor="middle" font-size="9" fill="#e53935">+</text>
  <!-- Connections -->
  <line x1="235" y1="130" x2="235" y2="88" stroke="#e53935" stroke-width="1.5"/>
  <circle cx="235" cy="88" r="3" fill="#e53935"/>
  <line x1="235" y1="225" x2="235" y2="520" stroke="#333" stroke-width="1.5"/>
  <circle cx="235" cy="520" r="3" fill="#333"/>

  <!-- ═══════════════════════════════════════════════════════════════════════ -->
  <!-- U1 — XIAO ESP32C6                                                       -->
  <!-- ═══════════════════════════════════════════════════════════════════════ -->
  <rect x="290" y="110" width="130" height="240" rx="4" fill="#fff" stroke="#1a1a2e" stroke-width="1.5" filter="url(#shadow)"/>
  <rect x="290" y="110" width="130" height="24" rx="4" fill="#1a1a2e"/>
  <text x="355" y="125" text-anchor="middle" font-size="10" fill="#fff" font-weight="bold">U1</text>
  <text x="355" y="136" text-anchor="middle" font-size="8" fill="#aaa">XIAO ESP32C6</text>
  <!-- USB-C indicator -->
  <rect x="322" y="83" width="66" height="14" rx="3" fill="#4a9eff" opacity="0.3" stroke="#4a9eff" stroke-width="1"/>
  <text x="355" y="93" text-anchor="middle" font-size="8" fill="#4a9eff">USB-C (WLED config)</text>
  <!-- Pin labels left -->
  <text x="296" y="158" font-size="8" fill="#999">P1 ─</text>
  <text x="296" y="172" font-size="8" fill="#4a9eff">D1 ─</text>
  <text x="296" y="186" font-size="8" fill="#999">P3 ─</text>
  <text x="296" y="200" font-size="8" fill="#999">P4 ─</text>
  <text x="296" y="214" font-size="8" fill="#999">P5 ─</text>
  <text x="296" y="228" font-size="8" fill="#999">P6 ─</text>
  <text x="296" y="242" font-size="8" fill="#e53935">VBUS</text>
  <!-- Pin labels right -->
  <text x="382" y="158" font-size="8" fill="#3ecf6a">3V3 ─</text>
  <text x="382" y="172" font-size="8" fill="#999">─ P13</text>
  <text x="382" y="186" font-size="8" fill="#999">─ P12</text>
  <text x="382" y="200" font-size="8" fill="#999">─ P11</text>
  <text x="382" y="214" font-size="8" fill="#999">─ P10</text>
  <text x="382" y="228" font-size="8" fill="#999">─ P9</text>
  <text x="382" y="242" font-size="8" fill="#333">GND ─</text>
  <!-- Internal labels -->
  <text x="355" y="280" text-anchor="middle" font-size="9" fill="#666">WiFi 6 / BLE 5</text>
  <text x="355" y="294" text-anchor="middle" font-size="8" fill="#999">WLED firmware</text>
  <text x="355" y="308" text-anchor="middle" font-size="8" fill="#999">HTTP API server</text>
  <!-- VBUS → 5V rail -->
  <line x1="290" y1="241" x2="275" y2="241" stroke="#e53935" stroke-width="1.5"/>
  <line x1="275" y1="241" x2="275" y2="88" stroke="#e53935" stroke-width="1.5"/>
  <circle cx="275" cy="88" r="3" fill="#e53935"/>
  <!-- GND → GND rail -->
  <line x1="420" y1="241" x2="440" y2="241" stroke="#333" stroke-width="1.5"/>
  <line x1="440" y1="241" x2="440" y2="520" stroke="#333" stroke-width="1.5"/>
  <circle cx="440" cy="520" r="3" fill="#333"/>
  <!-- D1 → DATA line -->
  <line x1="290" y1="171" x2="270" y2="171" stroke="#4a9eff" stroke-width="1.5"/>
  <!-- 3V3 → C4 -->
  <line x1="420" y1="157" x2="450" y2="157" stroke="#3ecf6a" stroke-width="1.5"/>

  <!-- ═══════════════════════════════════════════════════════════════════════ -->
  <!-- C4 — 100nF 3V3 decoupling                                               -->
  <!-- ═══════════════════════════════════════════════════════════════════════ -->
  <rect x="450" y="130" width="62" height="75" rx="4" fill="#fff" stroke="#1a1a2e" stroke-width="1.5" filter="url(#shadow)"/>
  <rect x="450" y="130" width="62" height="18" rx="4" fill="#2a6e4e"/>
  <text x="481" y="142" text-anchor="middle" font-size="9" fill="#fff" font-weight="bold">C4</text>
  <text x="481" y="158" text-anchor="middle" font-size="9" fill="#666">100nF</text>
  <text x="481" y="170" text-anchor="middle" font-size="8" fill="#999">X7R 50V</text>
  <text x="481" y="182" text-anchor="middle" font-size="8" fill="#999">P5.0mm</text>
  <text x="481" y="196" text-anchor="middle" font-size="8" fill="#999">3V3 decoup.</text>
  <!-- 3V3 pin -->
  <line x1="450" y1="157" x2="420" y2="157" stroke="#3ecf6a" stroke-width="1.5"/>
  <!-- GND -->
  <line x1="481" y1="205" x2="481" y2="520" stroke="#333" stroke-width="1.5"/>
  <circle cx="481" cy="520" r="3" fill="#333"/>

  <!-- ═══════════════════════════════════════════════════════════════════════ -->
  <!-- R1 — 470Ω                                                               -->
  <!-- ═══════════════════════════════════════════════════════════════════════ -->
  <!-- DATA_3V3 wire from XIAO D1 -->
  <line x1="270" y1="171" x2="270" y2="375" stroke="#4a9eff" stroke-width="1.5" stroke-dasharray="4,2"/>
  <line x1="270" y1="375" x2="530" y2="375" stroke="#4a9eff" stroke-width="1.5" stroke-dasharray="4,2"/>
  <text x="395" y="370" text-anchor="middle" font-size="8" fill="#4a9eff">DATA_3V3</text>
  <!-- R1 body -->
  <rect x="530" y="362" width="70" height="26" rx="4" fill="#fff" stroke="#1a1a2e" stroke-width="1.5" filter="url(#shadow)"/>
  <rect x="530" y="362" width="70" height="26" rx="4" fill="#f5e6c8" stroke="#1a1a2e" stroke-width="1.5"/>
  <line x1="535" y1="375" x2="540" y2="375" stroke="#1a1a2e" stroke-width="1.5"/>
  <line x1="595" y1="375" x2="600" y2="375" stroke="#1a1a2e" stroke-width="1.5"/>
  <!-- Resistor bands -->
  <line x1="548" y1="362" x2="548" y2="388" stroke="#f4c030" stroke-width="3"/>
  <line x1="556" y1="362" x2="556" y2="388" stroke="#8B4513" stroke-width="3"/>
  <line x1="564" y1="362" x2="564" y2="388" stroke="#8B4513" stroke-width="3"/>
  <line x1="578" y1="362" x2="578" y2="388" stroke="#aaa" stroke-width="3"/>
  <text x="565" y="400" text-anchor="middle" font-size="9" fill="#333" font-weight="bold">R1 470Ω</text>
  <text x="565" y="411" text-anchor="middle" font-size="8" fill="#999">LR1F470R</text>
  <!-- Wire from R1 to U2 1A -->
  <line x1="600" y1="375" x2="630" y2="375" stroke="#4a9eff" stroke-width="1.5" stroke-dasharray="4,2"/>

  <!-- ═══════════════════════════════════════════════════════════════════════ -->
  <!-- U2 — 74AHCT125                                                          -->
  <!-- ═══════════════════════════════════════════════════════════════════════ -->
  <rect x="630" y="300" width="110" height="200" rx="4" fill="#fff" stroke="#1a1a2e" stroke-width="1.5" filter="url(#shadow)"/>
  <rect x="630" y="300" width="110" height="22" rx="4" fill="#1a1a2e"/>
  <text x="685" y="314" text-anchor="middle" font-size="10" fill="#fff" font-weight="bold">U2</text>
  <text x="685" y="325" text-anchor="middle" font-size="7" fill="#aaa">SN74AHCT125N</text>
  <!-- Pin labels -->
  <text x="636" y="348" font-size="8" fill="#333">/OE1</text>
  <text x="636" y="363" font-size="8" fill="#4a9eff">1A</text>
  <text x="636" y="378" font-size="8" fill="#e8a020">1Y</text>
  <text x="636" y="393" font-size="8" fill="#999">/OE2</text>
  <text x="636" y="408" font-size="8" fill="#999">/OE3</text>
  <text x="636" y="423" font-size="8" fill="#999">/OE4</text>
  <text x="636" y="438" font-size="8" fill="#333">GND</text>
  <text x="700" y="438" font-size="8" fill="#e53935">VCC</text>
  <!-- /OE1 → GND -->
  <line x1="630" y1="347" x2="610" y2="347" stroke="#333" stroke-width="1.5"/>
  <line x1="610" y1="347" x2="610" y2="520" stroke="#333" stroke-width="1.5"/>
  <circle cx="610" cy="520" r="3" fill="#333"/>
  <!-- /OE2,3,4 → VCC (disabled) -->
  <line x1="630" y1="392" x2="615" y2="392" stroke="#e53935" stroke-width="1" stroke-dasharray="3,2"/>
  <line x1="630" y1="407" x2="615" y2="407" stroke="#e53935" stroke-width="1" stroke-dasharray="3,2"/>
  <line x1="630" y1="422" x2="615" y2="422" stroke="#e53935" stroke-width="1" stroke-dasharray="3,2"/>
  <line x1="615" y1="392" x2="615" y2="88" stroke="#e53935" stroke-width="1" stroke-dasharray="3,2"/>
  <circle cx="615" cy="88" r="2" fill="#e53935"/>
  <!-- GND rail -->
  <line x1="685" y1="500" x2="685" y2="520" stroke="#333" stroke-width="1.5"/>
  <circle cx="685" cy="520" r="3" fill="#333"/>
  <!-- VCC rail -->
  <line x1="735" y1="437" x2="760" y2="437" stroke="#e53935" stroke-width="1.5"/>
  <line x1="760" y1="437" x2="760" y2="88" stroke="#e53935" stroke-width="1.5"/>
  <circle cx="760" cy="88" r="3" fill="#e53935"/>
  <!-- 1A input from R1 -->
  <line x1="630" y1="362" x2="620" y2="362" stroke="#4a9eff" stroke-width="1.5" stroke-dasharray="4,2"/>
  <line x1="620" y1="362" x2="620" y2="375" stroke="#4a9eff" stroke-width="1.5" stroke-dasharray="4,2"/>
  <line x1="620" y1="375" x2="630" y2="375" stroke="#4a9eff" stroke-width="1.5" stroke-dasharray="4,2"/>
  <!-- Level shift label -->
  <text x="685" y="455" text-anchor="middle" font-size="8" fill="#666">3.3V → 5V</text>
  <text x="685" y="467" text-anchor="middle" font-size="8" fill="#666">DIP-14</text>
  <text x="685" y="479" text-anchor="middle" font-size="8" fill="#999">ED14DT socket</text>

  <!-- 1Y output → DATA_5V -->
  <line x1="740" y1="377" x2="780" y2="377" stroke="#e8a020" stroke-width="2" marker-end="url(#arr-w)"/>
  <text x="758" y="370" text-anchor="middle" font-size="8" fill="#e8a020">DATA_5V</text>

  <!-- ═══════════════════════════════════════════════════════════════════════ -->
  <!-- C2, C3 — decoupling                                                      -->
  <!-- ═══════════════════════════════════════════════════════════════════════ -->
  <!-- C2 -->
  <rect x="540" y="430" width="55" height="60" rx="4" fill="#fff" stroke="#2a6e4e" stroke-width="1.5"/>
  <rect x="540" y="430" width="55" height="16" rx="4" fill="#2a6e4e"/>
  <text x="567" y="441" text-anchor="middle" font-size="9" fill="#fff">C2</text>
  <text x="567" y="456" text-anchor="middle" font-size="8" fill="#666">100nF</text>
  <text x="567" y="467" text-anchor="middle" font-size="8" fill="#999">+5V decoup</text>
  <line x1="567" y1="430" x2="567" y2="420" stroke="#e53935" stroke-width="1.5"/>
  <line x1="567" y1="420" x2="567" y2="88" stroke="#e53935" stroke-width="1.5" stroke-dasharray="3,2"/>
  <circle cx="567" cy="88" r="2" fill="#e53935"/>
  <line x1="567" y1="490" x2="567" y2="520" stroke="#333" stroke-width="1.5"/>
  <circle cx="567" cy="520" r="3" fill="#333"/>
  <!-- C3 -->
  <rect x="540" y="230" width="55" height="60" rx="4" fill="#fff" stroke="#2a6e4e" stroke-width="1.5"/>
  <rect x="540" y="230" width="55" height="16" rx="4" fill="#2a6e4e"/>
  <text x="567" y="241" text-anchor="middle" font-size="9" fill="#fff">C3</text>
  <text x="567" y="257" text-anchor="middle" font-size="8" fill="#666">100nF</text>
  <text x="567" y="268" text-anchor="middle" font-size="8" fill="#999">U2 VCC</text>
  <line x1="567" y1="230" x2="567" y2="88" stroke="#e53935" stroke-width="1.5" stroke-dasharray="3,2"/>
  <circle cx="567" cy="88" r="2" fill="#e53935"/>
  <line x1="567" y1="290" x2="567" y2="520" stroke="#333" stroke-width="1.5" stroke-dasharray="3,2"/>
  <circle cx="567" cy="520" r="2" fill="#333"/>

  <!-- ═══════════════════════════════════════════════════════════════════════ -->
  <!-- J2 — TERMINAL BLOCK                                                      -->
  <!-- ═══════════════════════════════════════════════════════════════════════ -->
  <rect x="782" y="130" width="98" height="140" rx="4" fill="#fff" stroke="#1a1a2e" stroke-width="1.5" filter="url(#shadow)"/>
  <rect x="782" y="130" width="98" height="22" rx="4" fill="#1a1a2e"/>
  <text x="831" y="144" text-anchor="middle" font-size="10" fill="#fff" font-weight="bold">J2</text>
  <text x="831" y="156" text-anchor="middle" font-size="7" fill="#aaa">Molex 0397000803</text>
  <text x="831" y="175" text-anchor="middle" font-size="9" fill="#e53935">1 +5V</text>
  <text x="831" y="192" text-anchor="middle" font-size="9" fill="#333">2 GND</text>
  <text x="831" y="209" text-anchor="middle" font-size="9" fill="#e8a020">3 DATA</text>
  <text x="831" y="230" text-anchor="middle" font-size="8" fill="#666">5.00mm pitch</text>
  <text x="831" y="243" text-anchor="middle" font-size="8" fill="#666">push-in</text>
  <!-- J2 +5V to rail -->
  <line x1="782" y1="174" x2="770" y2="174" stroke="#e53935" stroke-width="1.5"/>
  <line x1="770" y1="174" x2="770" y2="88" stroke="#e53935" stroke-width="1.5"/>
  <circle cx="770" cy="88" r="3" fill="#e53935"/>
  <!-- J2 GND to rail -->
  <line x1="782" y1="191" x2="775" y2="191" stroke="#333" stroke-width="1.5"/>
  <line x1="775" y1="191" x2="775" y2="520" stroke="#333" stroke-width="1.5"/>
  <circle cx="775" cy="520" r="3" fill="#333"/>
  <!-- J2 DATA from U2 1Y -->
  <line x1="782" y1="208" x2="780" y2="208" stroke="#e8a020" stroke-width="2"/>
  <line x1="780" y1="377" x2="780" y2="208" stroke="#e8a020" stroke-width="2"/>

  <!-- ═══════════════════════════════════════════════════════════════════════ -->
  <!-- LED STRIP OUTPUT                                                         -->
  <!-- ═══════════════════════════════════════════════════════════════════════ -->
  <rect x="782" y="315" width="98" height="130" rx="4" fill="#1a1a2e" stroke="#e8a020" stroke-width="2" stroke-dasharray="5,3"/>
  <text x="831" y="335" text-anchor="middle" font-size="9" fill="#e8a020" font-weight="bold">WS2812B</text>
  <text x="831" y="348" text-anchor="middle" font-size="9" fill="#e8a020">LED Strips</text>
  <text x="831" y="366" text-anchor="middle" font-size="8" fill="#aaa">×16 (daisy-chain)</text>
  <text x="831" y="382" text-anchor="middle" font-size="8" fill="#aaa">one per</text>
  <text x="831" y="395" text-anchor="middle" font-size="8" fill="#aaa">Kallax cube</text>
  <!-- LED dots -->
  <circle cx="800" cy="415" r="5" fill="#e8a020" opacity="0.9"/>
  <circle cx="820" cy="415" r="5" fill="#e8a020" opacity="0.7"/>
  <circle cx="840" cy="415" r="5" fill="#e8a020" opacity="0.5"/>
  <text x="862" y="419" font-size="9" fill="#aaa">···</text>
  <text x="831" y="440" text-anchor="middle" font-size="8" fill="#555">GND / +5V / Din</text>
  <!-- Arrows from J2 to LED strip box -->
  <line x1="880" y1="174" x2="880" y2="320" stroke="#e53935" stroke-width="1.5" stroke-dasharray="4,2" marker-end="url(#arr)"/>
  <line x1="875" y1="520" x2="875" y2="445" stroke="#333" stroke-width="1.5" stroke-dasharray="4,2" marker-end="url(#arr)"/>
  <line x1="870" y1="208" x2="870" y2="315" stroke="#e8a020" stroke-width="2" stroke-dasharray="4,2" marker-end="url(#arr-w)"/>

  <!-- ═══════════════════════════════════════════════════════════════════════ -->
  <!-- RASPBERRY PI (external)                                                  -->
  <!-- ═══════════════════════════════════════════════════════════════════════ -->
  <rect x="40" y="400" width="110" height="80" rx="4" fill="#2d4a22" stroke="#3ecf6a" stroke-width="1.5" stroke-dasharray="5,3"/>
  <text x="95" y="418" text-anchor="middle" font-size="9" fill="#3ecf6a" font-weight="bold">Raspberry Pi 4B</text>
  <text x="95" y="433" text-anchor="middle" font-size="8" fill="#aaa">discogsography</text>
  <text x="95" y="447" text-anchor="middle" font-size="8" fill="#aaa">FastAPI server</text>
  <text x="95" y="461" text-anchor="middle" font-size="8" fill="#999">PostgreSQL lookup</text>
  <text x="95" y="475" text-anchor="middle" font-size="8" fill="#999">→ HTTP → WLED API</text>
  <!-- WiFi arrow to XIAO -->
  <line x1="150" y1="440" x2="290" y2="300" stroke="#3ecf6a" stroke-width="1.5" stroke-dasharray="6,3" marker-end="url(#arr)"/>
  <text x="205" y="360" text-anchor="middle" font-size="8" fill="#3ecf6a" transform="rotate(-35,205,360)">WiFi HTTP</text>

  <!-- ═══════════════════════════════════════════════════════════════════════ -->
  <!-- LEGEND                                                                   -->
  <!-- ═══════════════════════════════════════════════════════════════════════ -->
  <rect x="40" y="535" width="820" height="38" rx="3" fill="#f0f0f0" stroke="#ddd"/>
  <line x1="80" y1="548" x2="110" y2="548" stroke="#e53935" stroke-width="2"/>
  <text x="115" y="552" font-size="9" fill="#333">+5V rail</text>
  <line x1="175" y1="548" x2="205" y2="548" stroke="#333" stroke-width="2"/>
  <text x="210" y="552" font-size="9" fill="#333">GND rail</text>
  <line x1="265" y1="548" x2="295" y2="548" stroke="#4a9eff" stroke-width="1.5" stroke-dasharray="4,2"/>
  <text x="300" y="552" font-size="9" fill="#333">DATA_3V3</text>
  <line x1="365" y1="548" x2="395" y2="548" stroke="#e8a020" stroke-width="2"/>
  <text x="400" y="552" font-size="9" fill="#333">DATA_5V</text>
  <line x1="455" y1="548" x2="485" y2="548" stroke="#3ecf6a" stroke-width="1.5" stroke-dasharray="6,3"/>
  <text x="490" y="552" font-size="9" fill="#333">WiFi</text>
  <rect x="530" y="542" width="10" height="10" fill="#1a1a2e"/>
  <text x="545" y="552" font-size="9" fill="#333">On-board</text>
  <rect x="620" y="542" width="10" height="10" fill="#2d4a22" stroke="#3ecf6a" stroke-width="1" stroke-dasharray="3,1"/>
  <text x="635" y="552" font-size="9" fill="#333">External</text>
  <text x="700" y="552" font-size="9" fill="#999">Rev 10 · 68×50mm · All THT</text>

  <!-- Line 2 of legend -->
  <line x1="80" y1="563" x2="110" y2="563" stroke="#e53935" stroke-width="1" stroke-dasharray="3,2"/>
  <text x="115" y="567" font-size="9" fill="#333">+5V (decoupling)</text>
  <text x="265" y="567" font-size="9" fill="#999">Dashed lines = power connections to decoupling caps (simplified)</text>
</svg>
